<svg xmlns="http://www.w3.org/2000/svg" viewBox="0 0 1000 600" width="1000" height="600"><rect width="1000" height="600" fill="#fff8ed"/><g id="icon-0" transform="translate(0 0)"><rect x="5" y="5" width="190" height="190" rx="24" fill="#fffdfa" stroke="#ead8c0" stroke-width="3"/><circle cx="100" cy="83" r="51" fill="#ffe5bb" stroke="#704b3f" stroke-width="5"/><path d="M51 70Q49 19 100 20q53 0 49 51Q128 56 118 39q-16 25-67 31Z" fill="#ed98a3" stroke="#704b3f" stroke-width="4"/><circle cx="80" cy="90" r="4" fill="#704b3f"/><circle cx="120" cy="90" r="4" fill="#704b3f"/><path d="M88 110q12 13 24 0" fill="none" stroke="#704b3f" stroke-width="4" stroke-linecap="round"/><circle cx="66" cy="104" r="7" fill="#f3aaa0" opacity=".7"/><circle cx="134" cy="104" r="7" fill="#f3aaa0" opacity=".7"/><text x="100" y="176" text-anchor="middle" font-family="Arial,sans-serif" font-size="20" font-weight="bold" fill="#463025">Bạn An</text></g><g id="icon-1" transform="translate(200 0)"><rect x="5" y="5" width="190" height="190" rx="24" fill="#fffdfa" stroke="#ead8c0" stroke-width="3"/><circle cx="100" cy="83" r="51" fill="#ffe5bb" stroke="#704b3f" stroke-width="5"/><path d="M51 70Q49 19 100 20q53 0 49 51Q128 56 118 39q-16 25-67 31Z" fill="#b88de0" stroke="#704b3f" stroke-width="4"/><circle cx="80" cy="90" r="4" fill="#704b3f"/><circle cx="120" cy="90" r="4" fill="#704b3f"/><path d="M88 110q12 13 24 0" fill="none" stroke="#704b3f" stroke-width="4" stroke-linecap="round"/><circle cx="66" cy="104" r="7" fill="#f3aaa0" opacity=".7"/><circle cx="134" cy="104" r="7" fill="#f3aaa0" opacity=".7"/><text x="100" y="176" text-anchor="middle" font-family="Arial,sans-serif" font-size="20" font-weight="bold" fill="#463025">Bạn Bảo</text></g><g id="icon-2" transform="translate(400 0)"><rect x="5" y="5" width="190" height="190" rx="24" fill="#fffdfa" stroke="#ead8c0" stroke-width="3"/><circle cx="100" cy="83" r="51" fill="#ffe5bb" stroke="#704b3f" stroke-width="5"/><path d="M51 70Q49 19 100 20q53 0 49 51Q128 56 118 39q-16 25-67 31Z" fill="#86c8a5" stroke="#704b3f" stroke-width="4"/><circle cx="80" cy="90" r="4" fill="#704b3f"/><circle cx="120" cy="90" r="4" fill="#704b3f"/><path d="M88 110q12 13 24 0" fill="none" stroke="#704b3f" stroke-width="4" stroke-linecap="round"/><circle cx="66" cy="104" r="7" fill="#f3aaa0" opacity=".7"/><circle cx="134" cy="104" r="7" fill="#f3aaa0" opacity=".7"/><text x="100" y="176" text-anchor="middle" font-family="Arial,sans-serif" font-size="20" font-weight="bold" fill="#463025">Chị Chi</text></g><g id="icon-3" transform="translate(600 0)"><rect x="5" y="5" width="190" height="190" rx="24" fill="#fffdfa" stroke="#ead8c0" stroke-width="3"/><circle cx="100" cy="83" r="51" fill="#ffe5bb" stroke="#704b3f" stroke-width="5"/><path d="M51 70Q49 19 100 20q53 0 49 51Q128 56 118 39q-16 25-67 31Z" fill="#f3c46e" stroke="#704b3f" stroke-width="4"/><circle cx="80" cy="90" r="4" fill="#704b3f"/><circle cx="120" cy="90" r="4" fill="#704b3f"/><path d="M88 110q12 13 24 0" fill="none" stroke="#704b3f" stroke-width="4" stroke-linecap="round"/><circle cx="66" cy="104" r="7" fill="#f3aaa0" opacity=".7"/><circle cx="134" cy="104" r="7" fill="#f3aaa0" opacity=".7"/><text x="100" y="176" text-anchor="middle" font-family="Arial,sans-serif" font-size="20" font-weight="bold" fill="#463025">Anh Duy</text></g><g id="icon-4" transform="translate(800 0)"><rect x="5" y="5" width="190" height="190" rx="24" fill="#fffdfa" stroke="#ead8c0" stroke-width="3"/><circle cx="100" cy="83" r="51" fill="#ffe5bb" stroke="#704b3f" stroke-width="5"/><path d="M51 70Q49 19 100 20q53 0 49 51Q128 56 118 39q-16 25-67 31Z" fill="#91cde6" stroke="#704b3f" stroke-width="4"/><circle cx="80" cy="90" r="4" fill="#704b3f"/><circle cx="120" cy="90" r="4" fill="#704b3f"/><path d="M88 110q12 13 24 0" fill="none" stroke="#704b3f" stroke-width="4" stroke-linecap="round"/><circle cx="66" cy="104" r="7" fill="#f3aaa0" opacity=".7"/><circle cx="134" cy="104" r="7" fill="#f3aaa0" opacity=".7"/><text x="100" y="176" text-anchor="middle" font-family="Arial,sans-serif" font-size="20" font-weight="bold" fill="#463025">Bé Em</text></g><g id="icon-5" transform="translate(0 200)"><rect x="5" y="5" width="190" height="190" rx="24" fill="#fffdfa" stroke="#ead8c0" stroke-width="3"/><circle cx="100" cy="83" r="51" fill="#ffe5bb" stroke="#704b3f" stroke-width="5"/><path d="M51 70Q49 19 100 20q53 0 49 51Q128 56 118 39q-16 25-67 31Z" fill="#d0a6a3" stroke="#704b3f" stroke-width="4"/><circle cx="80" cy="90" r="4" fill="#704b3f"/><circle cx="120" cy="90" r="4" fill="#704b3f"/><path d="M88 110q12 13 24 0" fill="none" stroke="#704b3f" stroke-width="4" stroke-linecap="round"/><circle cx="66" cy="104" r="7" fill="#f3aaa0" opacity=".7"/><circle cx="134" cy="104" r="7" fill="#f3aaa0" opacity=".7"/><text x="100" y="176" text-anchor="middle" font-family="Arial,sans-serif" font-size="20" font-weight="bold" fill="#463025">Chú Hòa</text></g><g id="icon-6" transform="translate(200 200)"><rect x="5" y="5" width="190" height="190" rx="24" fill="#fffdfa" stroke="#ead8c0" stroke-width="3"/><circle cx="100" cy="83" r="51" fill="#ffe5bb" stroke="#704b3f" stroke-width="5"/><path d="M51 70Q49 19 100 20q53 0 49 51Q128 56 118 39q-16 25-67 31Z" fill="#beafde" stroke="#704b3f" stroke-width="4"/><circle cx="80" cy="90" r="4" fill="#704b3f"/><circle cx="120" cy="90" r="4" fill="#704b3f"/><path d="M88 110q12 13 24 0" fill="none" stroke="#704b3f" stroke-width="4" stroke-linecap="round"/><circle cx="66" cy="104" r="7" fill="#f3aaa0" opacity=".7"/><circle cx="134" cy="104" r="7" fill="#f3aaa0" opacity=".7"/><text x="100" y="176" text-anchor="middle" font-family="Arial,sans-serif" font-size="20" font-weight="bold" fill="#463025">Bà Mai</text></g><g id="icon-7" transform="translate(400 200)"><rect x="5" y="5" width="190" height="190" rx="24" fill="#fffdfa" stroke="#ead8c0" stroke-width="3"/><circle cx="100" cy="83" r="51" fill="#ffe5bb" stroke="#704b3f" stroke-width="5"/><path d="M51 70Q49 19 100 20q53 0 49 51Q128 56 118 39q-16 25-67 31Z" fill="#e99e89" stroke="#704b3f" stroke-width="4"/><circle cx="80" cy="90" r="4" fill="#704b3f"/><circle cx="120" cy="90" r="4" fill="#704b3f"/><path d="M88 110q12 13 24 0" fill="none" stroke="#704b3f" stroke-width="4" stroke-linecap="round"/><circle cx="66" cy="104" r="7" fill="#f3aaa0" opacity=".7"/><circle cx="134" cy="104" r="7" fill="#f3aaa0" opacity=".7"/><text x="100" y="176" text-anchor="middle" font-family="Arial,sans-serif" font-size="20" font-weight="bold" fill="#463025">Bạn Nhi</text></g><g id="icon-8" transform="translate(600 200)"><rect x="5" y="5" width="190" height="190" rx="24" fill="#fffdfa" stroke="#ead8c0" stroke-width="3"/><circle cx="100" cy="83" r="51" fill="#ffe5bb" stroke="#704b3f" stroke-width="5"/><path d="M51 70Q49 19 100 20q53 0 49 51Q128 56 118 39q-16 25-67 31Z" fill="#79bcb0" stroke="#704b3f" stroke-width="4"/><circle cx="80" cy="90" r="4" fill="#704b3f"/><circle cx="120" cy="90" r="4" fill="#704b3f"/><path d="M88 110q12 13 24 0" fill="none" stroke="#704b3f" stroke-width="4" stroke-linecap="round"/><circle cx="66" cy="104" r="7" fill="#f3aaa0" opacity=".7"/><circle cx="134" cy="104" r="7" fill="#f3aaa0" opacity=".7"/><text x="100" y="176" text-anchor="middle" font-family="Arial,sans-serif" font-size="20" font-weight="bold" fill="#463025">Bạn Quân</text></g><g id="icon-9" transform="translate(800 200)"><rect x="5" y="5" width="190" height="190" rx="24" fill="#fffdfa" stroke="#ead8c0" stroke-width="3"/><circle cx="100" cy="83" r="51" fill="#ffe5bb" stroke="#704b3f" stroke-width="5"/><path d="M51 70Q49 19 100 20q53 0 49 51Q128 56 118 39q-16 25-67 31Z" fill="#e4b9d7" stroke="#704b3f" stroke-width="4"/><circle cx="80" cy="90" r="4" fill="#704b3f"/><circle cx="120" cy="90" r="4" fill="#704b3f"/><path d="M88 110q12 13 24 0" fill="none" stroke="#704b3f" stroke-width="4" stroke-linecap="round"/><circle cx="66" cy="104" r="7" fill="#f3aaa0" opacity=".7"/><circle cx="134" cy="104" r="7" fill="#f3aaa0" opacity=".7"/><text x="100" y="176" text-anchor="middle" font-family="Arial,sans-serif" font-size="20" font-weight="bold" fill="#463025">Chị Thư</text></g><g id="icon-10" transform="translate(0 400)"><rect x="5" y="5" width="190" height="190" rx="24" fill="#fffdfa" stroke="#ead8c0" stroke-width="3"/><circle cx="100" cy="83" r="51" fill="#ffe5bb" stroke="#704b3f" stroke-width="5"/><path d="M51 70Q49 19 100 20q53 0 49 51Q128 56 118 39q-16 25-67 31Z" fill="#b2d187" stroke="#704b3f" stroke-width="4"/><circle cx="80" cy="90" r="4" fill="#704b3f"/><circle cx="120" cy="90" r="4" fill="#704b3f"/><path d="M88 110q12 13 24 0" fill="none" stroke="#704b3f" stroke-width="4" stroke-linecap="round"/><circle cx="66" cy="104" r="7" fill="#f3aaa0" opacity=".7"/><circle cx="134" cy="104" r="7" fill="#f3aaa0" opacity=".7"/><text x="100" y="176" text-anchor="middle" font-family="Arial,sans-serif" font-size="20" font-weight="bold" fill="#463025">Anh Tín</text></g><g id="icon-11" transform="translate(200 400)"><rect x="5" y="5" width="190" height="190" rx="24" fill="#fffdfa" stroke="#ead8c0" stroke-width="3"/><circle cx="100" cy="83" r="51" fill="#ffe5bb" stroke="#704b3f" stroke-width="5"/><path d="M51 70Q49 19 100 20q53 0 49 51Q128 56 118 39q-16 25-67 31Z" fill="#e8a2b1" stroke="#704b3f" stroke-width="4"/><circle cx="80" cy="90" r="4" fill="#704b3f"/><circle cx="120" cy="90" r="4" fill="#704b3f"/><path d="M88 110q12 13 24 0" fill="none" stroke="#704b3f" stroke-width="4" stroke-linecap="round"/><circle cx="66" cy="104" r="7" fill="#f3aaa0" opacity=".7"/><circle cx="134" cy="104" r="7" fill="#f3aaa0" opacity=".7"/><text x="100" y="176" text-anchor="middle" font-family="Arial,sans-serif" font-size="20" font-weight="bold" fill="#463025">Bạn Uyên</text></g><g id="icon-12" transform="translate(400 400)"><rect x="5" y="5" width="190" height="190" rx="24" fill="#fffdfa" stroke="#ead8c0" stroke-width="3"/><circle cx="100" cy="83" r="51" fill="#ffe5bb" stroke="#704b3f" stroke-width="5"/><path d="M51 70Q49 19 100 20q53 0 49 51Q128 56 118 39q-16 25-67 31Z" fill="#a8cde0" stroke="#704b3f" stroke-width="4"/><circle cx="80" cy="90" r="4" fill="#704b3f"/><circle cx="120" cy="90" r="4" fill="#704b3f"/><path d="M88 110q12 13 24 0" fill="none" stroke="#704b3f" stroke-width="4" stroke-linecap="round"/><circle cx="66" cy="104" r="7" fill="#f3aaa0" opacity=".7"/><circle cx="134" cy="104" r="7" fill="#f3aaa0" opacity=".7"/><text x="100" y="176" text-anchor="middle" font-family="Arial,sans-serif" font-size="20" font-weight="bold" fill="#463025">Anh Vũ</text></g><g id="icon-13" transform="translate(600 400)"><rect x="5" y="5" width="190" height="190" rx="24" fill="#fffdfa" stroke="#ead8c0" stroke-width="3"/><circle cx="100" cy="83" r="51" fill="#ffe5bb" stroke="#704b3f" stroke-width="5"/><path d="M51 70Q49 19 100 20q53 0 49 51Q128 56 118 39q-16 25-67 31Z" fill="#edce74" stroke="#704b3f" stroke-width="4"/><circle cx="80" cy="90" r="4" fill="#704b3f"/><circle cx="120" cy="90" r="4" fill="#704b3f"/><path d="M88 110q12 13 24 0" fill="none" stroke="#704b3f" stroke-width="4" stroke-linecap="round"/><circle cx="66" cy="104" r="7" fill="#f3aaa0" opacity=".7"/><circle cx="134" cy="104" r="7" fill="#f3aaa0" opacity=".7"/><text x="100" y="176" text-anchor="middle" font-family="Arial,sans-serif" font-size="20" font-weight="bold" fill="#463025">Bạn Xoài</text></g><g id="icon-14" transform="translate(800 400)"><rect x="5" y="5" width="190" height="190" rx="24" fill="#fffdfa" stroke="#ead8c0" stroke-width="3"/><circle cx="100" cy="83" r="51" fill="#ffe5bb" stroke="#704b3f" stroke-width="5"/><path d="M51 70Q49 19 100 20q53 0 49 51Q128 56 118 39q-16 25-67 31Z" fill="#b8d7a2" stroke="#704b3f" stroke-width="4"/><circle cx="80" cy="90" r="4" fill="#704b3f"/><circle cx="120" cy="90" r="4" fill="#704b3f"/><path d="M88 110q12 13 24 0" fill="none" stroke="#704b3f" stroke-width="4" stroke-linecap="round"/><circle cx="66" cy="104" r="7" fill="#f3aaa0" opacity=".7"/><circle cx="134" cy="104" r="7" fill="#f3aaa0" opacity=".7"/><text x="100" y="176" text-anchor="middle" font-family="Arial,sans-serif" font-size="20" font-weight="bold" fill="#463025">Chị Yến</text></g></svg>